<mxfile host="app.diagrams.net" agent="Mozilla/5.0 (Windows NT 10.0; Win64; x64) AppleWebKit/537.36 (KHTML, like Gecko) Chrome/127.0.0.0 Safari/537.36 OPR/113.0.0.0" version="24.7.17">
  <diagram name="Page-1" id="2YBvvXClWsGukQMizWep">
    <mxGraphModel dx="833" dy="461" grid="1" gridSize="10" guides="1" tooltips="1" connect="1" arrows="1" fold="1" page="1" pageScale="1" pageWidth="850" pageHeight="1100" math="0" shadow="0">
      <root>
        <mxCell id="0" />
        <mxCell id="1" parent="0" />
        <mxCell id="13F8do2NXbtGJprZb6u9-1" value="Usuário" style="shape=umlActor;verticalLabelPosition=bottom;verticalAlign=top;html=1;outlineConnect=0;" vertex="1" parent="1">
          <mxGeometry x="40" y="100" width="30" height="60" as="geometry" />
        </mxCell>
        <mxCell id="13F8do2NXbtGJprZb6u9-3" value="" style="html=1;points=[[0,0,0,0,5],[0,1,0,0,-5],[1,0,0,0,5],[1,1,0,0,-5]];perimeter=orthogonalPerimeter;outlineConnect=0;targetShapes=umlLifeline;portConstraint=eastwest;newEdgeStyle={&quot;curved&quot;:0,&quot;rounded&quot;:0};shadow=0;" vertex="1" parent="1">
          <mxGeometry x="50" y="180" width="10" height="140" as="geometry" />
        </mxCell>
        <mxCell id="13F8do2NXbtGJprZb6u9-6" value="" style="html=1;points=[[0,0,0,0,5],[0,1,0,0,-5],[1,0,0,0,5],[1,1,0,0,-5]];perimeter=orthogonalPerimeter;outlineConnect=0;targetShapes=umlLifeline;portConstraint=eastwest;newEdgeStyle={&quot;curved&quot;:0,&quot;rounded&quot;:0};shadow=0;" vertex="1" parent="1">
          <mxGeometry x="190" y="180" width="10" height="140" as="geometry" />
        </mxCell>
        <mxCell id="13F8do2NXbtGJprZb6u9-8" value="INTERFACE" style="rounded=0;whiteSpace=wrap;html=1;" vertex="1" parent="1">
          <mxGeometry x="142.5" y="100" width="105" height="40" as="geometry" />
        </mxCell>
        <mxCell id="13F8do2NXbtGJprZb6u9-10" value="" style="endArrow=none;dashed=1;html=1;rounded=0;entryX=0.5;entryY=1;entryDx=0;entryDy=0;" edge="1" parent="1" source="13F8do2NXbtGJprZb6u9-6" target="13F8do2NXbtGJprZb6u9-8">
          <mxGeometry width="50" height="50" relative="1" as="geometry">
            <mxPoint x="400" y="270" as="sourcePoint" />
            <mxPoint x="450" y="220" as="targetPoint" />
          </mxGeometry>
        </mxCell>
        <mxCell id="13F8do2NXbtGJprZb6u9-34" style="edgeStyle=orthogonalEdgeStyle;rounded=0;orthogonalLoop=1;jettySize=auto;html=1;curved=0;dashed=1;dashPattern=8 8;" edge="1" parent="1" source="13F8do2NXbtGJprZb6u9-11" target="13F8do2NXbtGJprZb6u9-6">
          <mxGeometry relative="1" as="geometry">
            <Array as="points">
              <mxPoint x="270" y="240" />
              <mxPoint x="270" y="240" />
            </Array>
          </mxGeometry>
        </mxCell>
        <mxCell id="13F8do2NXbtGJprZb6u9-36" value="Login Validado" style="edgeLabel;html=1;align=center;verticalAlign=middle;resizable=0;points=[];" vertex="1" connectable="0" parent="13F8do2NXbtGJprZb6u9-34">
          <mxGeometry x="-0.2" y="-1" relative="1" as="geometry">
            <mxPoint x="-14" y="-9" as="offset" />
          </mxGeometry>
        </mxCell>
        <mxCell id="13F8do2NXbtGJprZb6u9-40" style="edgeStyle=orthogonalEdgeStyle;rounded=0;orthogonalLoop=1;jettySize=auto;html=1;curved=0;" edge="1" parent="1" source="13F8do2NXbtGJprZb6u9-11" target="13F8do2NXbtGJprZb6u9-21">
          <mxGeometry relative="1" as="geometry">
            <mxPoint x="480" y="220" as="targetPoint" />
            <Array as="points">
              <mxPoint x="430" y="210" />
              <mxPoint x="430" y="210" />
            </Array>
          </mxGeometry>
        </mxCell>
        <mxCell id="13F8do2NXbtGJprZb6u9-41" value="Escolha de funcionalidade" style="edgeLabel;html=1;align=center;verticalAlign=middle;resizable=0;points=[];" vertex="1" connectable="0" parent="13F8do2NXbtGJprZb6u9-40">
          <mxGeometry x="-0.1273" relative="1" as="geometry">
            <mxPoint x="10" y="-10" as="offset" />
          </mxGeometry>
        </mxCell>
        <mxCell id="13F8do2NXbtGJprZb6u9-11" value="" style="html=1;points=[[0,0,0,0,5],[0,1,0,0,-5],[1,0,0,0,5],[1,1,0,0,-5]];perimeter=orthogonalPerimeter;outlineConnect=0;targetShapes=umlLifeline;portConstraint=eastwest;newEdgeStyle={&quot;curved&quot;:0,&quot;rounded&quot;:0};shadow=0;" vertex="1" parent="1">
          <mxGeometry x="340" y="180" width="10" height="80" as="geometry" />
        </mxCell>
        <mxCell id="13F8do2NXbtGJprZb6u9-14" value="ANTENTICAÇÃO" style="rounded=0;whiteSpace=wrap;html=1;" vertex="1" parent="1">
          <mxGeometry x="292.5" y="100" width="105" height="40" as="geometry" />
        </mxCell>
        <mxCell id="13F8do2NXbtGJprZb6u9-15" value="" style="endArrow=classic;html=1;rounded=0;" edge="1" parent="1" source="13F8do2NXbtGJprZb6u9-3" target="13F8do2NXbtGJprZb6u9-6">
          <mxGeometry width="50" height="50" relative="1" as="geometry">
            <mxPoint x="400" y="270" as="sourcePoint" />
            <mxPoint x="450" y="220" as="targetPoint" />
            <Array as="points">
              <mxPoint x="130" y="210" />
            </Array>
          </mxGeometry>
        </mxCell>
        <mxCell id="13F8do2NXbtGJprZb6u9-30" value="Login" style="edgeLabel;html=1;align=center;verticalAlign=middle;resizable=0;points=[];" vertex="1" connectable="0" parent="13F8do2NXbtGJprZb6u9-15">
          <mxGeometry x="0.1846" y="1" relative="1" as="geometry">
            <mxPoint x="-7" y="-9" as="offset" />
          </mxGeometry>
        </mxCell>
        <mxCell id="13F8do2NXbtGJprZb6u9-18" value="" style="endArrow=classic;html=1;rounded=0;entryX=1;entryY=0.857;entryDx=0;entryDy=0;entryPerimeter=0;" edge="1" parent="1" source="13F8do2NXbtGJprZb6u9-6" target="13F8do2NXbtGJprZb6u9-6">
          <mxGeometry width="50" height="50" relative="1" as="geometry">
            <mxPoint x="210" y="270" as="sourcePoint" />
            <mxPoint x="210" y="300" as="targetPoint" />
            <Array as="points">
              <mxPoint x="240" y="260" />
              <mxPoint x="240" y="300" />
            </Array>
          </mxGeometry>
        </mxCell>
        <mxCell id="13F8do2NXbtGJprZb6u9-32" value="Recuperar senha" style="edgeLabel;html=1;align=center;verticalAlign=middle;resizable=0;points=[];" vertex="1" connectable="0" parent="13F8do2NXbtGJprZb6u9-18">
          <mxGeometry x="-0.1167" y="1" relative="1" as="geometry">
            <mxPoint x="29" as="offset" />
          </mxGeometry>
        </mxCell>
        <mxCell id="13F8do2NXbtGJprZb6u9-20" value="" style="endArrow=none;dashed=1;html=1;rounded=0;entryX=0.5;entryY=1;entryDx=0;entryDy=0;" edge="1" parent="1" source="13F8do2NXbtGJprZb6u9-11" target="13F8do2NXbtGJprZb6u9-14">
          <mxGeometry width="50" height="50" relative="1" as="geometry">
            <mxPoint x="380" y="200" as="sourcePoint" />
            <mxPoint x="430" y="150" as="targetPoint" />
          </mxGeometry>
        </mxCell>
        <mxCell id="13F8do2NXbtGJprZb6u9-44" style="edgeStyle=orthogonalEdgeStyle;rounded=0;orthogonalLoop=1;jettySize=auto;html=1;curved=0;dashed=1;dashPattern=8 8;" edge="1" parent="1" source="13F8do2NXbtGJprZb6u9-21" target="13F8do2NXbtGJprZb6u9-11">
          <mxGeometry relative="1" as="geometry">
            <Array as="points">
              <mxPoint x="460" y="240" />
              <mxPoint x="460" y="240" />
            </Array>
          </mxGeometry>
        </mxCell>
        <mxCell id="13F8do2NXbtGJprZb6u9-45" value="Escolha concluida" style="edgeLabel;html=1;align=center;verticalAlign=middle;resizable=0;points=[];" vertex="1" connectable="0" parent="13F8do2NXbtGJprZb6u9-44">
          <mxGeometry x="0.0109" y="1" relative="1" as="geometry">
            <mxPoint y="-11" as="offset" />
          </mxGeometry>
        </mxCell>
        <mxCell id="13F8do2NXbtGJprZb6u9-21" value="" style="html=1;points=[[0,0,0,0,5],[0,1,0,0,-5],[1,0,0,0,5],[1,1,0,0,-5]];perimeter=orthogonalPerimeter;outlineConnect=0;targetShapes=umlLifeline;portConstraint=eastwest;newEdgeStyle={&quot;curved&quot;:0,&quot;rounded&quot;:0};shadow=0;" vertex="1" parent="1">
          <mxGeometry x="487.5" y="180" width="10" height="140" as="geometry" />
        </mxCell>
        <mxCell id="13F8do2NXbtGJprZb6u9-22" value="SISTEMA DE PIX" style="rounded=0;whiteSpace=wrap;html=1;" vertex="1" parent="1">
          <mxGeometry x="440" y="100" width="105" height="40" as="geometry" />
        </mxCell>
        <mxCell id="13F8do2NXbtGJprZb6u9-23" value="" style="endArrow=none;dashed=1;html=1;rounded=0;entryX=0.5;entryY=1;entryDx=0;entryDy=0;" edge="1" parent="1" source="13F8do2NXbtGJprZb6u9-21" target="13F8do2NXbtGJprZb6u9-22">
          <mxGeometry width="50" height="50" relative="1" as="geometry">
            <mxPoint x="400" y="270" as="sourcePoint" />
            <mxPoint x="450" y="220" as="targetPoint" />
          </mxGeometry>
        </mxCell>
        <mxCell id="13F8do2NXbtGJprZb6u9-28" value="" style="endArrow=classic;html=1;rounded=0;" edge="1" parent="1" source="13F8do2NXbtGJprZb6u9-6" target="13F8do2NXbtGJprZb6u9-11">
          <mxGeometry width="50" height="50" relative="1" as="geometry">
            <mxPoint x="242.5" y="220" as="sourcePoint" />
            <mxPoint x="292.5" y="170" as="targetPoint" />
            <Array as="points">
              <mxPoint x="280" y="210" />
            </Array>
          </mxGeometry>
        </mxCell>
        <mxCell id="13F8do2NXbtGJprZb6u9-33" value="Validar Login" style="edgeLabel;html=1;align=center;verticalAlign=middle;resizable=0;points=[];" vertex="1" connectable="0" parent="13F8do2NXbtGJprZb6u9-28">
          <mxGeometry x="-0.1143" y="1" relative="1" as="geometry">
            <mxPoint x="8" y="-9" as="offset" />
          </mxGeometry>
        </mxCell>
        <mxCell id="13F8do2NXbtGJprZb6u9-39" value="" style="endArrow=none;dashed=1;html=1;rounded=0;entryX=0.5;entryY=1;entryDx=0;entryDy=0;" edge="1" parent="1">
          <mxGeometry width="50" height="50" relative="1" as="geometry">
            <mxPoint x="492" y="360" as="sourcePoint" />
            <mxPoint x="492" y="320" as="targetPoint" />
          </mxGeometry>
        </mxCell>
        <mxCell id="13F8do2NXbtGJprZb6u9-46" value="BANCO" style="rounded=0;whiteSpace=wrap;html=1;" vertex="1" parent="1">
          <mxGeometry x="590" y="100" width="105" height="40" as="geometry" />
        </mxCell>
        <mxCell id="13F8do2NXbtGJprZb6u9-47" value="" style="html=1;points=[[0,0,0,0,5],[0,1,0,0,-5],[1,0,0,0,5],[1,1,0,0,-5]];perimeter=orthogonalPerimeter;outlineConnect=0;targetShapes=umlLifeline;portConstraint=eastwest;newEdgeStyle={&quot;curved&quot;:0,&quot;rounded&quot;:0};shadow=0;" vertex="1" parent="1">
          <mxGeometry x="637.5" y="180" width="10" height="140" as="geometry" />
        </mxCell>
        <mxCell id="13F8do2NXbtGJprZb6u9-48" value="" style="endArrow=none;dashed=1;html=1;rounded=0;entryX=0.5;entryY=1;entryDx=0;entryDy=0;" edge="1" parent="1">
          <mxGeometry width="50" height="50" relative="1" as="geometry">
            <mxPoint x="642" y="180" as="sourcePoint" />
            <mxPoint x="642" y="140" as="targetPoint" />
          </mxGeometry>
        </mxCell>
        <mxCell id="13F8do2NXbtGJprZb6u9-49" value="" style="html=1;points=[[0,0,0,0,5],[0,1,0,0,-5],[1,0,0,0,5],[1,1,0,0,-5]];perimeter=orthogonalPerimeter;outlineConnect=0;targetShapes=umlLifeline;portConstraint=eastwest;newEdgeStyle={&quot;curved&quot;:0,&quot;rounded&quot;:0};shadow=0;" vertex="1" parent="1">
          <mxGeometry x="487.5" y="360" width="10" height="190" as="geometry" />
        </mxCell>
        <mxCell id="13F8do2NXbtGJprZb6u9-50" value="" style="html=1;points=[[0,0,0,0,5],[0,1,0,0,-5],[1,0,0,0,5],[1,1,0,0,-5]];perimeter=orthogonalPerimeter;outlineConnect=0;targetShapes=umlLifeline;portConstraint=eastwest;newEdgeStyle={&quot;curved&quot;:0,&quot;rounded&quot;:0};shadow=0;" vertex="1" parent="1">
          <mxGeometry x="637.5" y="360" width="10" height="190" as="geometry" />
        </mxCell>
        <mxCell id="13F8do2NXbtGJprZb6u9-51" value="" style="endArrow=none;dashed=1;html=1;rounded=0;entryX=0.5;entryY=1;entryDx=0;entryDy=0;" edge="1" parent="1">
          <mxGeometry width="50" height="50" relative="1" as="geometry">
            <mxPoint x="642" y="360" as="sourcePoint" />
            <mxPoint x="642" y="320" as="targetPoint" />
          </mxGeometry>
        </mxCell>
        <mxCell id="13F8do2NXbtGJprZb6u9-52" value="" style="endArrow=classic;html=1;rounded=0;" edge="1" parent="1" target="13F8do2NXbtGJprZb6u9-50">
          <mxGeometry width="50" height="50" relative="1" as="geometry">
            <mxPoint x="497.5" y="380" as="sourcePoint" />
            <mxPoint x="627.5" y="380" as="targetPoint" />
            <Array as="points">
              <mxPoint x="567.5" y="380" />
            </Array>
          </mxGeometry>
        </mxCell>
        <mxCell id="13F8do2NXbtGJprZb6u9-60" value="Transferência" style="edgeLabel;html=1;align=center;verticalAlign=middle;resizable=0;points=[];" vertex="1" connectable="0" parent="13F8do2NXbtGJprZb6u9-52">
          <mxGeometry x="0.1929" y="2" relative="1" as="geometry">
            <mxPoint x="-11" y="-8" as="offset" />
          </mxGeometry>
        </mxCell>
        <mxCell id="13F8do2NXbtGJprZb6u9-54" value="" style="endArrow=classic;html=1;rounded=0;" edge="1" parent="1">
          <mxGeometry width="50" height="50" relative="1" as="geometry">
            <mxPoint x="497" y="440" as="sourcePoint" />
            <mxPoint x="637.5" y="440" as="targetPoint" />
            <Array as="points" />
          </mxGeometry>
        </mxCell>
        <mxCell id="13F8do2NXbtGJprZb6u9-61" value="Programar/Agendar" style="edgeLabel;html=1;align=center;verticalAlign=middle;resizable=0;points=[];" vertex="1" connectable="0" parent="13F8do2NXbtGJprZb6u9-54">
          <mxGeometry x="0.2171" y="-2" relative="1" as="geometry">
            <mxPoint x="-23" y="-12" as="offset" />
          </mxGeometry>
        </mxCell>
        <mxCell id="13F8do2NXbtGJprZb6u9-62" value="" style="endArrow=classic;html=1;rounded=0;" edge="1" parent="1">
          <mxGeometry width="50" height="50" relative="1" as="geometry">
            <mxPoint x="497" y="400" as="sourcePoint" />
            <mxPoint x="637.5" y="400" as="targetPoint" />
            <Array as="points">
              <mxPoint x="567" y="400" />
            </Array>
          </mxGeometry>
        </mxCell>
        <mxCell id="13F8do2NXbtGJprZb6u9-66" value="Ler QR Code" style="edgeLabel;html=1;align=center;verticalAlign=middle;resizable=0;points=[];" vertex="1" connectable="0" parent="13F8do2NXbtGJprZb6u9-62">
          <mxGeometry x="0.2242" y="1" relative="1" as="geometry">
            <mxPoint x="-23" y="-9" as="offset" />
          </mxGeometry>
        </mxCell>
        <mxCell id="13F8do2NXbtGJprZb6u9-64" value="" style="endArrow=classic;html=1;rounded=0;" edge="1" parent="1">
          <mxGeometry width="50" height="50" relative="1" as="geometry">
            <mxPoint x="497" y="420" as="sourcePoint" />
            <mxPoint x="637.5" y="420" as="targetPoint" />
            <Array as="points">
              <mxPoint x="567" y="420" />
            </Array>
          </mxGeometry>
        </mxCell>
        <mxCell id="13F8do2NXbtGJprZb6u9-67" value="PIX Copia e Cola" style="edgeLabel;html=1;align=center;verticalAlign=middle;resizable=0;points=[];" vertex="1" connectable="0" parent="13F8do2NXbtGJprZb6u9-64">
          <mxGeometry x="0.3025" relative="1" as="geometry">
            <mxPoint x="-19" y="-10" as="offset" />
          </mxGeometry>
        </mxCell>
        <mxCell id="13F8do2NXbtGJprZb6u9-68" value="" style="endArrow=classic;html=1;rounded=0;" edge="1" parent="1">
          <mxGeometry width="50" height="50" relative="1" as="geometry">
            <mxPoint x="497.5" y="460" as="sourcePoint" />
            <mxPoint x="638" y="460" as="targetPoint" />
            <Array as="points" />
          </mxGeometry>
        </mxCell>
        <mxCell id="13F8do2NXbtGJprZb6u9-70" value="Cobrar" style="edgeLabel;html=1;align=center;verticalAlign=middle;resizable=0;points=[];" vertex="1" connectable="0" parent="13F8do2NXbtGJprZb6u9-68">
          <mxGeometry x="0.0605" relative="1" as="geometry">
            <mxPoint x="-2" y="-10" as="offset" />
          </mxGeometry>
        </mxCell>
        <mxCell id="13F8do2NXbtGJprZb6u9-71" value="" style="endArrow=classic;html=1;rounded=0;" edge="1" parent="1">
          <mxGeometry width="50" height="50" relative="1" as="geometry">
            <mxPoint x="497" y="480" as="sourcePoint" />
            <mxPoint x="637.5" y="480" as="targetPoint" />
            <Array as="points" />
          </mxGeometry>
        </mxCell>
        <mxCell id="13F8do2NXbtGJprZb6u9-73" value="Depositar" style="edgeLabel;html=1;align=center;verticalAlign=middle;resizable=0;points=[];" vertex="1" connectable="0" parent="13F8do2NXbtGJprZb6u9-71">
          <mxGeometry x="0.1957" y="-4" relative="1" as="geometry">
            <mxPoint x="-11" y="-14" as="offset" />
          </mxGeometry>
        </mxCell>
      </root>
    </mxGraphModel>
  </diagram>
</mxfile>
